<svg width="84" height="90" viewBox="0 0 84 90" fill="none" xmlns="http://www.w3.org/2000/svg">
<path d="M26.9945 6.80165C34.5487 -2.26722 48.4761 -2.26722 56.0304 6.80165C58.9034 10.2508 62.9106 12.5643 67.3342 13.3279C78.9652 15.3357 85.9289 27.3971 81.8521 38.4737C80.3017 42.6864 80.3017 47.3136 81.8521 51.5263C85.9289 62.6029 78.9652 74.6643 67.3342 76.6721C62.9106 77.4357 58.9034 79.7492 56.0304 83.1983C48.4761 92.2672 34.5487 92.2672 26.9945 83.1983C24.1214 79.7492 20.1142 77.4357 15.6907 76.6721C4.05967 74.6643 -2.90402 62.6029 1.17273 51.5263C2.72322 47.3136 2.72322 42.6864 1.17273 38.4737C-2.90402 27.3971 4.05967 15.3357 15.6907 13.3279C20.1142 12.5643 24.1214 10.2508 26.9945 6.80165Z" fill="#FFD38A"/>
<g clip-path="url(#clip0_159_293)">
<path d="M65.2565 53.0564C65.0452 53.5394 64.6596 53.9109 64.1708 54.1021L61.42 55.1784C61.1884 55.2689 60.9463 55.3142 60.7044 55.3142C60.4358 55.3142 60.1673 55.2584 59.9131 55.1473C59.5378 54.9831 59.2313 54.7128 59.0229 54.3716L55.8941 55.7056C55.9936 56.3125 55.9003 56.9522 55.5854 57.5248C55.2145 58.1992 54.6006 58.687 53.8568 58.8983C53.8491 58.9004 53.8413 58.9019 53.8335 58.904C54.1133 59.6569 54.0797 60.5194 53.6669 61.27C53.1476 62.214 52.1688 62.7485 51.1605 62.7485C50.9519 62.7485 50.7422 62.7243 50.5349 62.6774C50.5592 63.1839 50.4496 63.7013 50.1894 64.1742C49.6703 65.1182 48.6914 65.6527 47.6831 65.6527C47.5606 65.6527 47.4378 65.6443 47.3152 65.6283C47.3532 66.158 47.2454 66.7035 46.9715 67.2016C46.4523 68.1456 45.4734 68.6802 44.4652 68.6802C44.0004 68.6802 43.5294 68.5666 43.0942 68.3273L42.1069 67.7844C41.7434 68.2927 41.2248 68.6663 40.6141 68.8513C40.3388 68.9348 40.0577 68.9761 39.7785 68.9761C39.3159 68.9761 38.8584 68.8627 38.4403 68.639C37.7848 68.2885 37.322 67.7168 37.094 67.0649C36.9733 67.1205 36.8483 67.1686 36.7188 67.2079C36.4435 67.2913 36.1624 67.3327 35.8833 67.3327C35.4206 67.3327 34.9631 67.2193 34.545 66.9956C33.9519 66.6783 33.5169 66.1798 33.2704 65.6049C33.0801 65.715 32.8759 65.8047 32.6598 65.8701C32.3844 65.9535 32.1035 65.9949 31.8243 65.9949C31.3617 65.9949 30.9039 65.8813 30.4859 65.6578C29.8155 65.2992 29.3244 64.699 29.1027 63.9675C28.9666 63.5185 28.943 63.0542 29.0276 62.6075C28.9712 62.6109 28.9149 62.6138 28.8586 62.6138C28.3959 62.6138 27.9385 62.5003 27.5204 62.2768C26.85 61.9182 26.3587 61.3179 26.137 60.5864C25.9154 59.8551 25.9908 59.0831 26.3494 58.4127L27.0699 57.0656C26.8834 56.65 26.7999 56.1943 26.7188 55.7496C26.5677 54.9216 26.4585 54.5167 26.1106 54.3816C25.8535 54.2818 25.0779 53.9411 23.6267 53.2899C23.25 53.7684 22.6734 54.0419 22.076 54.0419C21.8023 54.0419 21.5246 53.9848 21.26 53.8637L18.5735 52.636C17.5854 52.1845 17.1489 51.0132 17.6004 50.0251L23.1218 37.944C23.5733 36.9559 24.7447 36.5195 25.7326 36.9711L28.4191 38.1988C29.4071 38.6504 29.8436 39.8217 29.3921 40.8097L29.225 41.1754L31.6569 42.2973C31.675 42.3058 31.6929 42.3149 31.7105 42.3247C32.678 42.8693 33.6818 42.6322 34.9522 42.332C36.6083 41.9408 38.6469 41.4602 41.0344 42.8694C44.3177 40.8373 46.8389 41.8652 48.7014 42.6265C50.0556 43.18 50.9282 43.4971 51.7703 43.0592L54.0788 41.8235L54.0274 41.6919C53.6316 40.6802 54.1326 39.5352 55.1441 39.1393L57.8949 38.0629C58.9068 37.6673 60.0516 38.1683 60.4476 39.1797L65.2877 51.5494C65.4789 52.0383 65.4677 52.5734 65.2565 53.0564ZM22.5064 52.2673L28.0276 40.1863C28.1335 39.9544 28.0272 39.669 27.7953 39.5631L25.1089 38.3354C24.9958 38.2837 24.8683 38.2796 24.7498 38.3238C24.6312 38.368 24.5375 38.4546 24.4859 38.5676L18.9645 50.6487C18.8586 50.8805 18.9649 51.1658 19.1967 51.2717L21.8832 52.4995C22.1152 52.6055 22.4004 52.499 22.5064 52.2673ZM29.2589 61.0535C29.6053 60.9485 29.8892 60.7173 30.059 60.4023L31.3981 57.8991C31.7439 57.2528 31.49 56.4103 30.8434 56.0659C30.1984 55.7224 29.3572 55.969 29.0085 56.6209L27.6718 59.1201C27.3253 59.768 27.5809 60.6082 28.2276 60.954C28.5448 61.1236 28.9112 61.1589 29.2589 61.0535ZM33.0271 63.7794L34.8383 60.3929C35.1834 59.7477 34.9295 58.9037 34.2836 58.5598C33.643 58.2186 32.8021 58.4608 32.4515 59.1101L30.6375 62.5011C30.4678 62.8182 30.4325 63.1845 30.5379 63.5324C30.6434 63.8803 30.8761 64.1653 31.1933 64.335C31.5104 64.5046 31.8765 64.54 32.2245 64.4346C32.5725 64.3292 32.8576 64.0964 33.0271 63.7794ZM37.0861 65.1172L38.5507 62.3786C38.8964 61.732 38.6427 60.8896 37.996 60.5453C37.3464 60.1993 36.5079 60.4518 36.1611 61.1003L34.6965 63.8389C34.3441 64.4978 34.5935 65.3204 35.2524 65.6728C35.5695 65.8424 35.9357 65.8779 36.2837 65.7723C36.6316 65.6669 36.9166 65.4343 37.0861 65.1172ZM40.9814 66.7606L42.2631 64.3641C42.6055 63.7238 42.3509 62.873 41.7084 62.5309C41.0589 62.1851 40.2204 62.4373 39.8735 63.0859L38.5916 65.4827C38.2396 66.1415 38.489 66.964 39.1477 67.3163C39.4649 67.486 39.8313 67.5214 40.179 67.4158C40.5268 67.3104 40.8118 67.0777 40.9814 66.7606ZM45.2261 64.7028L43.9306 63.9903C43.9239 63.9867 43.9179 63.9823 43.9114 63.9785C43.8785 64.3569 43.7696 64.7277 43.5858 65.0715L42.836 66.4737L43.8169 67.0131C44.4717 67.3732 45.2971 67.1336 45.6571 66.4789C45.9963 65.8623 45.8003 65.0919 45.2261 64.7028ZM53.7269 54.9562L46.4466 50.8066C45.2019 50.097 43.6534 50.7241 41.8607 51.4499C39.1575 52.5443 35.7932 53.9063 32.9476 49.985C32.8225 49.8127 32.7766 49.5953 32.8212 49.3872C32.8659 49.179 32.997 48.9996 33.1818 48.8938C35.3425 47.656 37.1584 46.3004 38.5791 44.8648C38.9422 44.4979 39.3102 44.1603 39.6798 43.8524C38.0797 43.1349 36.7213 43.4553 35.2969 43.7919C33.9072 44.1201 32.4707 44.4595 31.0022 43.6473L28.6013 42.5397L24.3012 51.9487C25.1589 52.3334 26.3629 52.8706 26.6531 52.9833C27.7294 53.4012 27.9969 54.4363 28.1554 55.271C28.4882 54.9284 28.9045 54.6731 29.3759 54.5302C30.1075 54.3086 30.8794 54.3839 31.5498 54.7425C32.2182 55.0985 32.7095 55.6978 32.9318 56.4291C32.9857 56.6065 33.0219 56.7862 33.0411 56.9663C33.704 56.8215 34.3879 56.9143 34.99 57.2364C35.6585 57.5923 36.1497 58.1915 36.372 58.9229C36.3848 58.965 36.3964 59.0072 36.4072 59.0495C36.4473 59.0354 36.4876 59.0219 36.5286 59.0095C37.26 58.7878 38.032 58.8633 38.7024 59.2218C39.3709 59.5779 39.862 60.177 40.0844 60.9084C40.0973 60.9505 40.1088 60.9928 40.1196 61.035C40.1596 61.021 40.2 61.0074 40.2409 60.995C40.972 60.7734 41.7442 60.8488 42.4148 61.2073C42.7413 61.3813 43.0252 61.6135 43.2564 61.8905L47.0349 63.9853C47.6892 64.3452 48.515 64.1059 48.8752 63.4513C49.2318 62.803 48.9893 61.9758 48.3345 61.6074L43.8407 59.0781C43.4797 58.8749 43.3518 58.4176 43.5549 58.0566C43.7581 57.6957 44.2153 57.5677 44.5764 57.7708L50.5122 61.0812C51.1666 61.4411 51.9923 61.2016 52.3525 60.547C52.7066 59.9032 52.4693 59.0833 51.8247 58.7113C51.783 58.6903 46.4814 55.6983 46.4814 55.6983C46.1208 55.4946 45.9936 55.0371 46.1973 54.6764C46.4009 54.3159 46.8583 54.1883 47.2192 54.3923L52.4382 57.3403C52.7434 57.5126 53.1016 57.5534 53.4466 57.4554C53.802 57.3544 54.0948 57.1223 54.271 56.8019C54.6256 56.1574 54.3816 55.3293 53.7269 54.9562ZM58.4468 52.9866L54.6293 43.2302L52.4701 44.3859C50.9613 45.1707 49.5238 44.5832 48.1337 44.015C46.2351 43.2389 44.2718 42.4365 41.4342 44.3981C40.8399 44.8089 40.238 45.3209 39.6453 45.9199C38.3005 47.2787 36.6349 48.5641 34.6857 49.748C36.6919 51.9238 38.8408 51.0542 41.2978 50.0596C43.2718 49.2605 45.3129 48.434 47.1894 49.5035L54.4697 53.6531C54.7881 53.8345 55.0592 54.0683 55.2785 54.3375L58.4468 52.9866ZM63.8906 52.0961C63.8906 52.0961 59.0528 39.7318 59.0506 39.7264C58.9589 39.492 58.6757 39.3681 58.4414 39.4599L55.6907 40.5361C55.4534 40.629 55.3313 40.908 55.4242 41.1454L60.2643 53.5151C60.3095 53.6308 60.3983 53.7224 60.5142 53.7732C60.6302 53.824 60.7578 53.827 60.8734 53.7816L63.6241 52.7053C63.7398 52.6601 63.8315 52.5713 63.8822 52.4553C63.9329 52.3393 63.936 52.2118 63.8906 52.0961ZM57.7704 40.6952C57.1949 40.6952 56.7255 41.1645 56.7255 41.74C56.7255 42.3154 57.1949 42.7848 57.7704 42.7848C58.3458 42.7848 58.8152 42.3154 58.8152 41.74C58.8152 41.1645 58.3459 40.6952 57.7704 40.6952ZM25.71 39.6063C25.1338 39.5742 24.6408 40.0152 24.6086 40.5913C24.5765 41.1675 25.0175 41.6606 25.5937 41.6927C26.1699 41.7249 26.6629 41.2839 26.695 40.7077C26.7272 40.1315 26.2862 39.6384 25.71 39.6063ZM25.8152 34.6773C25.4448 34.1748 25.3425 33.5698 25.5272 32.9736C26.0415 31.3128 27.2305 30.0203 28.7414 29.3536C28.1526 28.7528 27.7885 27.9308 27.7885 27.0251C27.7885 25.1892 29.2823 23.6954 31.1182 23.6954C32.9541 23.6954 34.4476 25.1891 34.4476 27.025C34.4476 27.9303 34.0839 28.7519 33.4957 29.3527C34.2366 29.6804 34.9036 30.1619 35.4549 30.7738C36.2949 29.6995 37.4177 28.864 38.7073 28.3707C37.8011 27.6 37.2248 26.4528 37.2248 25.1729C37.2248 22.8583 39.108 20.9751 41.4227 20.9751C43.7374 20.9751 45.6205 22.8583 45.6205 25.173C45.6205 26.453 45.0441 27.6002 44.138 28.3708C45.4276 28.8642 46.5504 29.6998 47.3904 30.7741C47.9418 30.1622 48.6087 29.6807 49.3496 29.353C48.7614 28.7521 48.3976 27.9305 48.3976 27.0252C48.3976 25.1893 49.8913 23.6956 51.7272 23.6956C53.5631 23.6956 55.0569 25.1893 55.0569 27.0252C55.0569 27.931 54.6928 28.753 54.104 29.3538C55.6148 30.0205 56.8039 31.3129 57.3181 32.9738C57.5028 33.5699 57.4005 34.175 57.0301 34.6775C56.6595 35.18 56.1118 35.4568 55.4877 35.4568H48.9528V36.0849C48.9527 37.5033 47.7986 38.6573 46.3804 38.6573H36.4649C35.0465 38.6573 33.8926 37.5033 33.8926 36.0849V35.4566H27.3576C26.7332 35.4565 26.1855 35.1798 25.8152 34.6773ZM51.7265 28.8547H51.7279C52.7364 28.8543 53.5569 28.0337 53.5569 27.0252C53.5569 26.0163 52.7361 25.1956 51.7272 25.1956C50.7184 25.1956 49.8976 26.0163 49.8976 27.0252C49.8976 28.0337 50.718 28.8543 51.7265 28.8547ZM48.2291 32.1201C48.508 32.6938 48.7179 33.3088 48.8459 33.9568H55.4877C55.6311 33.9568 55.7376 33.9029 55.8228 33.7874C55.9078 33.6721 55.9277 33.5545 55.8853 33.4175C55.3181 31.5859 53.6476 30.3553 51.7283 30.3548H51.7265C50.3264 30.355 49.0481 31.0087 48.2291 32.1201ZM41.4207 27.8709H41.4226H41.4246C42.9114 27.8698 44.1206 26.66 44.1206 25.173C44.1205 23.6854 42.9103 22.4751 41.4227 22.4751C39.9351 22.4751 38.7248 23.6854 38.7248 25.173C38.7248 26.66 39.934 27.8698 41.4207 27.8709ZM35.3926 34.7476V36.0848C35.3926 36.6762 35.8736 37.1572 36.4649 37.1572H46.3803C46.9717 37.1572 47.4526 36.6761 47.4527 36.0848V34.7476C47.105 31.68 44.5204 29.3718 41.4245 29.3709H41.4226L41.4206 29.3708C38.3247 29.3718 35.7401 31.6801 35.3926 34.7476ZM31.1174 28.8545H31.1187C32.1273 28.8541 32.9476 28.0335 32.9476 27.025C32.9476 26.0161 32.1269 25.1953 31.1181 25.1953C30.1092 25.1953 29.2884 26.0161 29.2884 27.025C29.2884 28.0336 30.1089 28.8541 31.1174 28.8545ZM27.0225 33.7873C27.1076 33.9028 27.214 33.9566 27.3575 33.9566H33.9994C34.1274 33.3088 34.3373 32.6936 34.6161 32.12C33.7971 31.0086 32.5187 30.3549 31.1187 30.3546H31.1169C29.1975 30.3551 27.527 31.5857 26.9598 33.4173C26.9175 33.5542 26.9374 33.6718 27.0225 33.7873Z" fill="black"/>
</g>
<defs>
<clipPath id="clip0_159_293">
<rect width="48" height="48" fill="white" transform="translate(17.4226 20.9751)"/>
</clipPath>
</defs>
</svg>
