<svg width="84" height="90" viewBox="0 0 84 90" fill="none" xmlns="http://www.w3.org/2000/svg">
<path d="M26.9945 6.80165C34.5487 -2.26722 48.4761 -2.26722 56.0304 6.80165C58.9034 10.2508 62.9106 12.5643 67.3342 13.3279C78.9652 15.3357 85.9289 27.3971 81.8521 38.4737C80.3017 42.6864 80.3017 47.3136 81.8521 51.5263C85.9289 62.6029 78.9652 74.6643 67.3342 76.6721C62.9106 77.4357 58.9034 79.7492 56.0304 83.1983C48.4761 92.2672 34.5487 92.2672 26.9945 83.1983C24.1214 79.7492 20.1142 77.4357 15.6907 76.6721C4.05967 74.6643 -2.90402 62.6029 1.17273 51.5263C2.72322 47.3136 2.72322 42.6864 1.17273 38.4737C-2.90402 27.3971 4.05967 15.3357 15.6907 13.3279C20.1142 12.5643 24.1214 10.2508 26.9945 6.80165Z" fill="#FFD38A"/>
<g clip-path="url(#clip0_159_277)">
<path d="M49.3964 41.0199C50.1962 40.2282 50.6926 39.1308 50.6926 37.9193C50.6926 35.5129 48.7344 33.5552 46.3275 33.5552C44.4729 33.5552 42.8291 34.7309 42.2153 36.4538C41.958 36.4063 41.6934 36.3803 41.4225 36.3803C41.1517 36.3803 40.8871 36.4063 40.6298 36.4538C40.016 34.7308 38.3721 33.5552 36.5175 33.5552C34.1106 33.5552 32.1525 35.5129 32.1525 37.9193C32.1525 39.1308 32.649 40.2282 33.4487 41.0199C31.5302 42.1127 30.2952 44.1822 30.2952 46.4328C30.2952 46.8213 30.61 47.136 30.9983 47.136C31.3866 47.136 31.7014 46.8213 31.7014 46.4328C31.7014 44.4451 32.946 42.64 34.8009 41.9321C35.3282 42.1585 35.9084 42.2843 36.5176 42.2843C36.7859 42.2843 37.0516 42.2584 37.3116 42.2104C37.5339 42.8321 37.893 43.389 38.3529 43.8446C36.417 44.9407 35.2004 46.9949 35.2004 49.2582C35.2004 49.6466 35.5152 49.9613 35.9035 49.9613C36.2918 49.9613 36.6066 49.6466 36.6066 49.2582C36.6066 47.3182 37.7613 45.5762 39.5482 44.8204C39.596 44.8002 39.6401 44.775 39.6808 44.7462C40.2147 44.9795 40.8036 45.1098 41.4225 45.1098C42.0319 45.1098 42.6122 44.9839 43.1395 44.7574C44.9936 45.4653 46.2384 47.2723 46.2384 49.2582C46.2384 49.6466 46.5532 49.9613 46.9415 49.9613C47.3298 49.9613 47.6446 49.6466 47.6446 49.2582C47.6446 47.0096 46.4093 44.9385 44.4913 43.8452C44.9517 43.3895 45.311 42.8324 45.5334 42.2104C45.7935 42.2584 46.0591 42.2843 46.3274 42.2843C46.9366 42.2843 47.5169 42.1585 48.044 41.9321C49.899 42.64 51.1435 44.4449 51.1435 46.4328C51.1435 46.8213 51.4583 47.136 51.8466 47.136C52.2349 47.136 52.5498 46.8213 52.5498 46.4328C52.5499 44.1821 51.3149 42.1127 49.3964 41.0199ZM37.0579 40.7451C37.0579 40.7727 37.0595 40.7999 37.0599 40.8274C36.8828 40.8604 36.7014 40.878 36.5176 40.878C34.8861 40.878 33.5588 39.5508 33.5588 37.9193C33.5588 36.2884 34.8861 34.9614 36.5176 34.9614C37.7763 34.9614 38.8912 35.7601 39.3062 36.9295C37.9665 37.6756 37.0579 39.106 37.0579 40.7451ZM38.4641 40.7451C38.4641 39.1138 39.7913 37.7866 41.4226 37.7866C43.054 37.7866 44.3811 39.1137 44.3811 40.7451C44.3811 42.3764 43.054 43.7036 41.4226 43.7036C39.7913 43.7036 38.4641 42.3764 38.4641 40.7451ZM45.7852 40.8274C45.7857 40.7999 45.7873 40.7727 45.7873 40.7451C45.7873 39.106 44.8786 37.6757 43.5389 36.9296C43.9539 35.7602 45.0688 34.9615 46.3275 34.9615C47.959 34.9615 49.2863 36.2884 49.2863 37.9194C49.2863 39.5508 47.959 40.8781 46.3275 40.8781C46.1437 40.878 45.9623 40.8604 45.7852 40.8274Z" fill="#029348"/>
<path d="M59.6318 51.3631V38.5824C61.3845 38.2516 62.7146 36.71 62.7146 34.8626C62.7146 32.7748 61.0162 31.0763 58.9283 31.0763C57.7809 31.0763 56.7518 31.5901 56.0569 32.3988L44.9956 26.012C45.1331 25.6203 45.2089 25.1995 45.2089 24.7612C45.2089 22.6736 43.5104 20.9751 41.4227 20.9751C39.3349 20.9751 37.6364 22.6736 37.6364 24.7613C37.6364 25.1996 37.712 25.6203 37.8497 26.0121L26.7883 32.3988C26.0934 31.5901 25.0643 31.0763 23.9169 31.0763C21.8291 31.0763 20.1306 32.7748 20.1306 34.8626C20.1306 36.71 21.4607 38.2515 23.2134 38.5824V51.3631C21.4607 51.6939 20.1306 53.2355 20.1306 55.0829C20.1306 57.1707 21.8291 58.8692 23.9169 58.8692C25.0626 58.8692 26.0901 58.357 26.785 57.5506L37.8496 63.9384C37.712 64.3301 37.6364 64.7508 37.6364 65.1889C37.6364 67.2767 39.3349 68.9752 41.4227 68.9752C43.5105 68.9752 45.209 67.2767 45.209 65.1889C45.209 64.7508 45.1333 64.3301 44.9958 63.9384L56.0603 57.5506C56.7552 58.3571 57.7828 58.8692 58.9284 58.8692C61.0163 58.8692 62.7147 57.1707 62.7147 55.0829C62.7146 53.2354 61.3844 51.6939 59.6318 51.3631ZM58.9283 32.4826C60.2407 32.4826 61.3084 33.5503 61.3084 34.8626C61.3084 36.175 60.2407 37.2427 58.9283 37.2427C57.616 37.2427 56.5483 36.175 56.5483 34.8626C56.5483 33.5503 57.616 32.4826 58.9283 32.4826ZM41.4227 22.3814C42.735 22.3814 43.8027 23.449 43.8027 24.7613C43.8027 26.0724 42.737 27.1393 41.4263 27.1413C41.4251 27.1413 41.4239 27.1411 41.4227 27.1411C41.4215 27.1411 41.4202 27.1413 41.419 27.1413C40.1084 27.1393 39.0426 26.0724 39.0426 24.7613C39.0426 23.449 40.1103 22.3814 41.4227 22.3814ZM21.5369 34.8626C21.5369 33.5503 22.6046 32.4826 23.9169 32.4826C25.2292 32.4826 26.297 33.5503 26.297 34.8626C26.297 36.175 25.2292 37.2427 23.9169 37.2427C22.6046 37.2427 21.5369 36.175 21.5369 34.8626ZM23.9169 57.4628C22.6046 57.4628 21.5369 56.3951 21.5369 55.0828C21.5369 53.7704 22.6046 52.7027 23.9169 52.7027C25.2292 52.7027 26.297 53.7704 26.297 55.0828C26.297 56.3951 25.2292 57.4628 23.9169 57.4628ZM41.4227 67.5688C40.1104 67.5688 39.0426 66.5011 39.0426 65.1888C39.0426 63.8765 40.1104 62.8088 41.4227 62.8088C42.735 62.8088 43.8027 63.8765 43.8027 65.1888C43.8027 66.5011 42.735 67.5688 41.4227 67.5688ZM44.291 62.7215C43.7419 62.084 42.9848 61.6311 42.1257 61.4691V58.7602C42.1257 58.3718 41.8109 58.0571 41.4226 58.0571C41.0343 58.0571 40.7195 58.3718 40.7195 58.7602V61.4691C39.8604 61.6311 39.1034 62.084 38.5542 62.7215L27.4898 56.3337C27.6275 55.9418 27.7031 55.5211 27.7031 55.0829C27.7031 54.6442 27.6273 54.2231 27.4895 53.8309L29.836 52.4758C30.1723 52.2815 30.2875 51.8515 30.0933 51.5152C29.8991 51.1789 29.4691 51.0639 29.1327 51.2579L26.7841 52.6143C26.235 51.9774 25.4782 51.5249 24.6196 51.363V38.5825C25.4785 38.4206 26.2355 37.9679 26.7846 37.3306L29.1364 38.6888C29.2471 38.7527 29.368 38.7831 29.4874 38.7831C29.7303 38.7831 29.9666 38.657 30.0969 38.4315C30.2911 38.0953 30.1759 37.6651 29.8396 37.471L27.4896 36.1138C27.6272 35.7219 27.7029 35.301 27.7029 34.8626C27.7029 34.4261 27.6278 34.0071 27.4913 33.6166L38.5542 27.2289C39.1033 27.8662 39.8602 28.319 40.7192 28.481V31.1902C40.7192 31.5786 41.034 31.8933 41.4223 31.8933C41.8106 31.8933 42.1254 31.5786 42.1254 31.1902V28.481C42.9844 28.319 43.7413 27.8662 44.2904 27.2289L55.3534 33.6166C55.2169 34.0071 55.1417 34.4261 55.1417 34.8626C55.1417 35.301 55.2174 35.7219 55.355 36.1138L53.005 37.471C52.6687 37.6651 52.5535 38.0953 52.7477 38.4315C52.878 38.657 53.1143 38.7831 53.3572 38.7831C53.4765 38.7831 53.5975 38.7527 53.7082 38.6888L56.06 37.3306C56.6092 37.9679 57.3662 38.4206 58.225 38.5825V51.363C57.3664 51.5249 56.6097 51.9774 56.0605 52.6143L53.7119 51.2579C53.3756 51.0641 52.9456 51.1789 52.7513 51.5152C52.5571 51.8515 52.6723 52.2815 53.0086 52.4758L55.3551 53.8309C55.2173 54.2231 55.1415 54.6442 55.1415 55.0829C55.1415 55.5211 55.2171 55.9419 55.3548 56.3337L44.291 62.7215ZM58.9283 57.4628C57.616 57.4628 56.5483 56.3951 56.5483 55.0828C56.5483 53.7704 57.616 52.7027 58.9283 52.7027C60.2407 52.7027 61.3084 53.7704 61.3084 55.0828C61.3084 56.3951 60.2407 57.4628 58.9283 57.4628Z" fill="black"/>
<path d="M47.3119 52.2402H45.2194C44.831 52.2402 44.5162 52.555 44.5162 52.9434C44.5162 53.3318 44.831 53.6465 45.2194 53.6465H47.3119C47.7002 53.6465 48.015 53.3318 48.015 52.9434C48.015 52.555 47.7002 52.2402 47.3119 52.2402Z" fill="black"/>
<path d="M47.3118 54.9941H35.5333C35.145 54.9941 34.8302 55.3089 34.8302 55.6973C34.8302 56.0857 35.145 56.4004 35.5333 56.4004H47.3119C47.7002 56.4004 48.015 56.0857 48.015 55.6973C48.015 55.3089 47.7001 54.9941 47.3118 54.9941Z" fill="#D12B38"/>
<path d="M35.5333 53.6465H35.5431C35.9314 53.6465 36.2462 53.3318 36.2462 52.9434C36.2462 52.555 35.9314 52.2402 35.5431 52.2402H35.5333C35.145 52.2402 34.8302 52.555 34.8302 52.9434C34.8302 53.3318 35.145 53.6465 35.5333 53.6465Z" fill="black"/>
<path d="M37.9785 53.6465C38.3668 53.6465 38.6816 53.3318 38.6816 52.9434C38.6816 52.555 38.3668 52.2402 37.9785 52.2402H37.9688C37.5804 52.2402 37.2656 52.555 37.2656 52.9434C37.2656 53.3318 37.5804 53.6465 37.9688 53.6465H37.9785Z" fill="black"/>
<path d="M40.414 53.6465C40.8024 53.6465 41.1172 53.3318 41.1172 52.9434C41.1172 52.555 40.8024 52.2402 40.414 52.2402H40.4043C40.016 52.2402 39.7012 52.555 39.7012 52.9434C39.7012 53.3318 40.016 53.6465 40.4043 53.6465H40.414Z" fill="black"/>
</g>
<defs>
<clipPath id="clip0_159_277">
<rect width="48" height="48" fill="white" transform="translate(17.4226 20.9751)"/>
</clipPath>
</defs>
</svg>
