<svg width="84" height="90" viewBox="0 0 84 90" fill="none" xmlns="http://www.w3.org/2000/svg">
<path d="M26.9945 6.80165C34.5487 -2.26722 48.4761 -2.26722 56.0304 6.80165C58.9034 10.2508 62.9106 12.5643 67.3342 13.3279C78.9652 15.3357 85.9289 27.3971 81.8521 38.4737C80.3017 42.6864 80.3017 47.3136 81.8521 51.5263C85.9289 62.6029 78.9652 74.6643 67.3342 76.6721C62.9106 77.4357 58.9034 79.7492 56.0304 83.1983C48.4761 92.2672 34.5487 92.2672 26.9945 83.1983C24.1214 79.7492 20.1142 77.4357 15.6907 76.6721C4.05967 74.6643 -2.90402 62.6029 1.17273 51.5263C2.72322 47.3136 2.72322 42.6864 1.17273 38.4737C-2.90402 27.3971 4.05967 15.3357 15.6907 13.3279C20.1142 12.5643 24.1214 10.2508 26.9945 6.80165Z" fill="#FFD38A"/>
<path d="M36.9226 59.9751H45.9226V62.9751C45.9226 63.7707 45.6065 64.5338 45.0439 65.0964C44.4813 65.659 43.7183 65.9751 42.9226 65.9751H39.9226C39.127 65.9751 38.3639 65.659 37.8013 65.0964C37.2387 64.5338 36.9226 63.7707 36.9226 62.9751V59.9751Z" fill="#EDEBF1"/>
<path d="M40.6726 34.4751C40.9287 34.4775 41.1824 34.5242 41.4226 34.6131V29.9751C38.24 29.9751 35.1878 31.2394 32.9373 33.4898C30.6869 35.7403 29.4226 38.7925 29.4226 41.9751H34.0606C33.9717 42.2153 33.925 42.469 33.9226 42.7251C33.9226 43.3218 34.1597 43.8941 34.5816 44.3161C35.0036 44.738 35.5759 44.9751 36.1726 44.9751C36.7693 44.9751 37.3416 44.738 37.7636 44.3161C38.1856 43.8941 38.4226 43.3218 38.4226 42.7251C38.4202 42.469 38.3735 42.2153 38.2846 41.9751H41.4226V38.8371C41.1824 38.926 40.9287 38.9727 40.6726 38.9751C40.0759 38.9751 39.5036 38.738 39.0816 38.3161C38.6597 37.8941 38.4226 37.3218 38.4226 36.7251C38.4226 36.1284 38.6597 35.5561 39.0816 35.1341C39.5036 34.7122 40.0759 34.4751 40.6726 34.4751Z" fill="#F26674"/>
<path d="M42.1726 44.9751C41.9165 44.9775 41.6628 45.0242 41.4226 45.1131V41.9751H38.2846C38.3735 42.2153 38.4202 42.469 38.4226 42.7251C38.4226 43.3218 38.1856 43.8941 37.7636 44.3161C37.3416 44.738 36.7693 44.9751 36.1726 44.9751C35.5759 44.9751 35.0036 44.738 34.5816 44.3161C34.1597 43.8941 33.9226 43.3218 33.9226 42.7251C33.925 42.469 33.9717 42.2153 34.0606 41.9751H29.4226C29.4236 44.3646 30.1379 46.6995 31.4741 48.6805C32.8103 50.6615 34.7075 52.1985 36.9226 53.0946V55.4751H41.4226V49.3371C41.6628 49.426 41.9165 49.4727 42.1726 49.4751C42.7693 49.4751 43.3416 49.238 43.7636 48.8161C44.1856 48.3941 44.4226 47.8218 44.4226 47.2251C44.4226 46.6284 44.1856 46.0561 43.7636 45.6341C43.3416 45.2122 42.7693 44.9751 42.1726 44.9751Z" fill="#FBDB75"/>
<path d="M48.7846 41.9751C48.8735 41.7349 48.9202 41.4812 48.9226 41.2251C48.9226 40.6284 48.6856 40.0561 48.2636 39.6341C47.8416 39.2122 47.2693 38.9751 46.6726 38.9751C46.0759 38.9751 45.5036 39.2122 45.0816 39.6341C44.6597 40.0561 44.4226 40.6284 44.4226 41.2251C44.425 41.4812 44.4717 41.7349 44.5606 41.9751H41.4226V45.1131C41.6628 45.0242 41.9165 44.9775 42.1726 44.9751C42.7693 44.9751 43.3416 45.2122 43.7636 45.6341C44.1856 46.0561 44.4226 46.6284 44.4226 47.2251C44.4226 47.8218 44.1856 48.3941 43.7636 48.8161C43.3416 49.238 42.7693 49.4751 42.1726 49.4751C41.9165 49.4727 41.6628 49.426 41.4226 49.3371V55.4751H45.9226V53.0946C48.1378 52.1985 50.035 50.6615 51.3711 48.6805C52.7073 46.6995 53.4217 44.3646 53.4226 41.9751H48.7846Z" fill="#B3DE8A"/>
<path d="M50.5606 35.9751C50.4717 35.7349 50.425 35.4812 50.4226 35.2251C50.4226 34.6284 50.6597 34.0561 51.0816 33.6341C51.5036 33.2122 52.0759 32.9751 52.6726 32.9751C53.2693 32.9751 53.8416 33.2122 54.2636 33.6341C54.6856 34.0561 54.9226 34.6284 54.9226 35.2251C54.9202 35.4812 54.8735 35.7349 54.7846 35.9751H59.4226C59.4226 32.7925 58.1583 29.7403 55.9079 27.4898C53.6575 25.2394 50.6052 23.9751 47.4226 23.9751V28.6131C47.1824 28.5242 46.9287 28.4775 46.6726 28.4751C46.0759 28.4751 45.5036 28.7122 45.0816 29.1341C44.6597 29.5561 44.4226 30.1284 44.4226 30.7251C44.4226 31.3218 44.6597 31.8941 45.0816 32.3161C45.5036 32.738 46.0759 32.9751 46.6726 32.9751C46.9287 32.9727 47.1824 32.926 47.4226 32.8371V35.9751H50.5606Z" fill="#82BCF3"/>
<path d="M47.4226 55.4751H35.4226C34.5942 55.4751 33.9226 56.1467 33.9226 56.9751V58.4751C33.9226 59.3035 34.5942 59.9751 35.4226 59.9751H47.4226C48.251 59.9751 48.9226 59.3035 48.9226 58.4751V56.9751C48.9226 56.1467 48.251 55.4751 47.4226 55.4751Z" fill="#425B72"/>
<path d="M41.4226 27.7251C41.2237 27.7251 41.0329 27.6461 40.8923 27.5054C40.7516 27.3648 40.6726 27.174 40.6726 26.9751V23.9751C40.6726 23.7762 40.7516 23.5854 40.8923 23.4448C41.0329 23.3041 41.2237 23.2251 41.4226 23.2251C41.6215 23.2251 41.8123 23.3041 41.9529 23.4448C42.0936 23.5854 42.1726 23.7762 42.1726 23.9751V26.9751C42.1726 27.174 42.0936 27.3648 41.9529 27.5054C41.8123 27.6461 41.6215 27.7251 41.4226 27.7251Z" fill="black"/>
<path d="M33.9227 29.7351C33.7909 29.7352 33.6614 29.7007 33.5473 29.6348C33.4331 29.569 33.3383 29.4742 33.2724 29.3601L31.7724 26.7621C31.7224 26.6768 31.6897 26.5824 31.6763 26.4844C31.6629 26.3864 31.6691 26.2867 31.6943 26.1911C31.7196 26.0955 31.7636 26.0058 31.8237 25.9272C31.8837 25.8487 31.9588 25.7828 32.0444 25.7333C32.1301 25.6838 32.2247 25.6518 32.3228 25.6391C32.4208 25.6263 32.5205 25.6331 32.6159 25.659C32.7114 25.6849 32.8008 25.7295 32.879 25.7901C32.9571 25.8507 33.0225 25.9261 33.0714 26.0121L34.5714 28.6101C34.6372 28.7241 34.6719 28.8533 34.6719 28.9849C34.6719 29.1165 34.6373 29.2458 34.5716 29.3598C34.5059 29.4738 34.4113 29.5685 34.2974 29.6344C34.1835 29.7002 34.0543 29.735 33.9227 29.7351Z" fill="black"/>
<path d="M28.4318 35.2251C28.3002 35.2253 28.1707 35.1907 28.0568 35.1246L25.4581 33.6246C25.2872 33.5244 25.1629 33.3607 25.1123 33.1692C25.0617 32.9778 25.0889 32.774 25.1879 32.6025C25.2869 32.431 25.4498 32.3056 25.6409 32.2537C25.832 32.2019 26.0359 32.2277 26.2081 32.3256L28.8068 33.8256C28.9498 33.9081 29.0616 34.0355 29.1247 34.1881C29.1879 34.3406 29.199 34.5097 29.1563 34.6692C29.1135 34.8286 29.0194 34.9696 28.8884 35.0701C28.7574 35.1706 28.5969 35.225 28.4318 35.2251Z" fill="black"/>
<path d="M26.4226 42.7251H23.4226C23.2237 42.7251 23.0329 42.6461 22.8923 42.5054C22.7516 42.3648 22.6726 42.174 22.6726 41.9751C22.6726 41.7762 22.7516 41.5854 22.8923 41.4448C23.0329 41.3041 23.2237 41.2251 23.4226 41.2251H26.4226C26.6215 41.2251 26.8123 41.3041 26.9529 41.4448C27.0936 41.5854 27.1726 41.7762 27.1726 41.9751C27.1726 42.174 27.0936 42.3648 26.9529 42.5054C26.8123 42.6461 26.6215 42.7251 26.4226 42.7251Z" fill="black"/>
<path d="M25.8346 51.7251C25.6695 51.7251 25.509 51.6707 25.378 51.5702C25.247 51.4696 25.1529 51.3287 25.1102 51.1693C25.0674 51.0098 25.0785 50.8407 25.1417 50.6881C25.2049 50.5356 25.3166 50.4082 25.4596 50.3256L28.0583 48.8256C28.1436 48.7756 28.238 48.743 28.336 48.7296C28.434 48.7162 28.5337 48.7223 28.6293 48.7476C28.7249 48.7729 28.8146 48.8168 28.8932 48.8769C28.9718 48.937 29.0377 49.012 29.0871 49.0976C29.1366 49.1833 29.1686 49.2779 29.1814 49.376C29.1941 49.4741 29.1873 49.5737 29.1614 49.6692C29.1355 49.7646 29.091 49.854 29.0304 49.9322C28.9698 50.0103 28.8943 50.0758 28.8083 50.1246L26.2096 51.6246C26.0957 51.6907 25.9663 51.7254 25.8346 51.7251Z" fill="black"/>
<path d="M57.0107 51.7251C56.879 51.7254 56.7496 51.6907 56.6357 51.6246L54.0369 50.1246C53.9509 50.0758 53.8755 50.0103 53.8149 49.9322C53.7542 49.854 53.7097 49.7646 53.6838 49.6692C53.6579 49.5737 53.6511 49.4741 53.6638 49.376C53.6766 49.2779 53.7086 49.1833 53.7581 49.0976C53.8075 49.012 53.8734 48.937 53.952 48.8769C54.0306 48.8168 54.1203 48.7729 54.2159 48.7476C54.3115 48.7223 54.4112 48.7162 54.5092 48.7296C54.6072 48.743 54.7016 48.7756 54.7869 48.8256L57.3857 50.3256C57.5286 50.4082 57.6404 50.5356 57.7035 50.6881C57.7667 50.8407 57.7778 51.0098 57.7351 51.1693C57.6923 51.3287 57.5982 51.4696 57.4672 51.5702C57.3362 51.6707 57.1757 51.7251 57.0107 51.7251Z" fill="black"/>
<path d="M59.4226 42.7251H56.4226C56.2237 42.7251 56.0329 42.6461 55.8923 42.5054C55.7516 42.3648 55.6726 42.174 55.6726 41.9751C55.6726 41.7762 55.7516 41.5854 55.8923 41.4448C56.0329 41.3041 56.2237 41.2251 56.4226 41.2251H59.4226C59.6215 41.2251 59.8123 41.3041 59.9529 41.4448C60.0936 41.5854 60.1726 41.7762 60.1726 41.9751C60.1726 42.174 60.0936 42.3648 59.9529 42.5054C59.8123 42.6461 59.6215 42.7251 59.4226 42.7251Z" fill="black"/>
<path d="M53.4226 41.2251H49.6726C49.6726 40.4294 49.3565 39.6664 48.7939 39.1038C48.2313 38.5412 47.4683 38.2251 46.6726 38.2251C45.877 38.2251 45.1139 38.5412 44.5513 39.1038C43.9887 39.6664 43.6726 40.4294 43.6726 41.2251H42.1726V38.8371C42.1725 38.7172 42.1436 38.5991 42.0885 38.4926C42.0333 38.3862 41.9534 38.2945 41.8555 38.2253C41.7575 38.1561 41.6445 38.1114 41.5257 38.0949C41.4069 38.0784 41.2859 38.0907 41.1729 38.1306C40.946 38.2152 40.702 38.2436 40.4618 38.2134C40.2215 38.1832 39.9922 38.0953 39.7933 37.9572C39.5944 37.8191 39.4319 37.6349 39.3197 37.4203C39.2075 37.2058 39.1489 36.9672 39.1489 36.7251C39.1489 36.483 39.2075 36.2444 39.3197 36.0299C39.4319 35.8153 39.5944 35.6311 39.7933 35.493C39.9922 35.3549 40.2215 35.267 40.4618 35.2368C40.702 35.2066 40.946 35.235 41.1729 35.3196C41.2859 35.3595 41.4069 35.3718 41.5257 35.3553C41.6445 35.3388 41.7575 35.2941 41.8555 35.2249C41.9534 35.1557 42.0333 35.064 42.0885 34.9576C42.1436 34.8511 42.1725 34.733 42.1726 34.6131V29.9751C42.1726 29.7762 42.0936 29.5854 41.9529 29.4448C41.8123 29.3041 41.6215 29.2251 41.4226 29.2251C38.5096 29.2277 35.6853 30.2278 33.4197 32.0589C31.1541 33.89 29.5838 36.4416 28.9702 39.2893C28.3566 42.137 28.7366 45.1089 30.047 47.7106C31.3574 50.3123 33.5192 52.3867 36.1726 53.5888V54.7251H35.4226C34.8259 54.7251 34.2536 54.9622 33.8316 55.3841C33.4097 55.8061 33.1726 56.3784 33.1726 56.9751V58.4751C33.1726 59.0718 33.4097 59.6441 33.8316 60.0661C34.2536 60.488 34.8259 60.7251 35.4226 60.7251H36.1726V62.9751C36.1738 63.9693 36.5693 64.9224 37.2723 65.6254C37.9753 66.3284 38.9284 66.7239 39.9226 66.7251H42.9226C43.9168 66.7239 44.8699 66.3284 45.573 65.6254C46.276 64.9224 46.6714 63.9693 46.6726 62.9751V60.7251H47.4226C48.0194 60.7251 48.5917 60.488 49.0136 60.0661C49.4356 59.6441 49.6726 59.0718 49.6726 58.4751V56.9751C49.6726 56.3784 49.4356 55.8061 49.0136 55.3841C48.5917 54.9622 48.0194 54.7251 47.4226 54.7251H46.6726V53.5888C48.9114 52.585 50.8113 50.9537 52.1424 48.8926C53.4735 46.8314 54.1786 44.4287 54.1726 41.9751C54.1726 41.7762 54.0936 41.5854 53.9529 41.4448C53.8123 41.3041 53.6215 41.2251 53.4226 41.2251ZM40.6726 30.7498V33.7251C39.877 33.7251 39.1139 34.0412 38.5513 34.6038C37.9887 35.1664 37.6726 35.9294 37.6726 36.7251C37.6726 37.5207 37.9887 38.2838 38.5513 38.8464C39.1139 39.409 39.877 39.7251 40.6726 39.7251V41.2251H38.2846C38.1646 41.2252 38.0464 41.254 37.9399 41.3093C37.8333 41.3645 37.7416 41.4445 37.6724 41.5425C37.6032 41.6405 37.5585 41.7537 37.5421 41.8726C37.5257 41.9914 37.538 42.1125 37.5781 42.2256C37.6627 42.4525 37.6911 42.6965 37.6609 42.9367C37.6307 43.1769 37.5428 43.4063 37.4047 43.6052C37.2666 43.804 37.0824 43.9665 36.8678 44.0788C36.6533 44.191 36.4147 44.2496 36.1726 44.2496C35.9305 44.2496 35.692 44.191 35.4774 44.0788C35.2629 43.9665 35.0787 43.804 34.9405 43.6052C34.8024 43.4063 34.7145 43.1769 34.6843 42.9367C34.6541 42.6965 34.6825 42.4525 34.7671 42.2256C34.8072 42.1125 34.8196 41.9914 34.8031 41.8726C34.7867 41.7537 34.7421 41.6405 34.6728 41.5425C34.6036 41.4445 34.5119 41.3645 34.4054 41.3093C34.2988 41.254 34.1806 41.2252 34.0606 41.2251H30.1974C30.3825 38.5079 31.5456 35.9497 33.4714 34.0239C35.3972 32.0981 37.9554 30.935 40.6726 30.7498ZM37.2039 52.4001C35.2425 51.6126 33.5441 50.2861 32.3048 48.5741C31.0655 46.862 30.3359 44.8343 30.2004 42.7251H33.1726C33.1726 43.5207 33.4887 44.2838 34.0513 44.8464C34.6139 45.409 35.377 45.7251 36.1726 45.7251C36.9683 45.7251 37.7313 45.409 38.2939 44.8464C38.8565 44.2838 39.1726 43.5207 39.1726 42.7251H40.6726V45.1131C40.6727 45.233 40.7016 45.3511 40.7568 45.4576C40.812 45.564 40.8919 45.6557 40.9898 45.7249C41.0877 45.7941 41.2008 45.8388 41.3196 45.8553C41.4383 45.8718 41.5593 45.8595 41.6724 45.8196C41.8992 45.735 42.1432 45.7066 42.3835 45.7368C42.6237 45.767 42.8531 45.8549 43.0519 45.993C43.2508 46.1311 43.4133 46.3153 43.5255 46.5299C43.6377 46.7444 43.6964 46.983 43.6964 47.2251C43.6964 47.4672 43.6377 47.7058 43.5255 47.9203C43.4133 48.1349 43.2508 48.3191 43.0519 48.4572C42.8531 48.5953 42.6237 48.6832 42.3835 48.7134C42.1432 48.7436 41.8992 48.7152 41.6724 48.6306C41.5593 48.5907 41.4383 48.5784 41.3196 48.5949C41.2008 48.6114 41.0877 48.6561 40.9898 48.7253C40.8919 48.7945 40.812 48.8862 40.7568 48.9926C40.7016 49.0991 40.6727 49.2172 40.6726 49.3371V54.7251H37.6726V53.0946C37.6725 52.9453 37.6278 52.7995 37.5443 52.6758C37.4608 52.5521 37.3422 52.4561 37.2039 52.4001ZM45.1726 62.9751C45.1726 63.5718 44.9356 64.1441 44.5136 64.5661C44.0917 64.988 43.5194 65.2251 42.9226 65.2251H39.9226C39.3259 65.2251 38.7536 64.988 38.3316 64.5661C37.9097 64.1441 37.6726 63.5718 37.6726 62.9751V60.7251H39.1726V62.9751C39.1726 63.174 39.2516 63.3648 39.3923 63.5054C39.5329 63.6461 39.7237 63.7251 39.9226 63.7251C40.1215 63.7251 40.3123 63.6461 40.4529 63.5054C40.5936 63.3648 40.6726 63.174 40.6726 62.9751V60.7251H42.1726V62.9751C42.1726 63.174 42.2516 63.3648 42.3923 63.5054C42.5329 63.6461 42.7237 63.7251 42.9226 63.7251C43.1215 63.7251 43.3123 63.6461 43.4529 63.5054C43.5936 63.3648 43.6726 63.174 43.6726 62.9751V60.7251H45.1726V62.9751ZM47.4226 56.2251C47.6215 56.2251 47.8123 56.3041 47.9529 56.4448C48.0936 56.5854 48.1726 56.7762 48.1726 56.9751V58.4751C48.1726 58.674 48.0936 58.8648 47.9529 59.0054C47.8123 59.1461 47.6215 59.2251 47.4226 59.2251H35.4226C35.2237 59.2251 35.0329 59.1461 34.8923 59.0054C34.7516 58.8648 34.6726 58.674 34.6726 58.4751V56.9751C34.6726 56.7762 34.7516 56.5854 34.8923 56.4448C35.0329 56.3041 35.2237 56.2251 35.4226 56.2251H47.4226ZM45.6414 52.4001C45.5029 52.4561 45.3843 52.5522 45.3008 52.6761C45.2172 52.8 45.1726 52.946 45.1726 53.0953V54.7251H42.1726V50.2251C42.9683 50.2251 43.7313 49.909 44.2939 49.3464C44.8565 48.7838 45.1726 48.0207 45.1726 47.2251C45.1726 46.4294 44.8565 45.6664 44.2939 45.1038C43.7313 44.5412 42.9683 44.2251 42.1726 44.2251V42.7251H44.5606C44.6806 42.725 44.7988 42.6962 44.9054 42.6409C45.0119 42.5857 45.1036 42.5057 45.1728 42.4077C45.2421 42.3097 45.2867 42.1965 45.3031 42.0776C45.3196 41.9588 45.3072 41.8377 45.2671 41.7246C45.1825 41.4977 45.1541 41.2537 45.1843 41.0135C45.2145 40.7733 45.3024 40.5439 45.4405 40.345C45.5787 40.1462 45.7629 39.9837 45.9774 39.8714C46.192 39.7592 46.4305 39.7006 46.6726 39.7006C46.9147 39.7006 47.1533 39.7592 47.3678 39.8714C47.5824 39.9837 47.7666 40.1462 47.9047 40.345C48.0428 40.5439 48.1307 40.7733 48.1609 41.0135C48.1911 41.2537 48.1627 41.4977 48.0781 41.7246C48.038 41.8377 48.0257 41.9588 48.0421 42.0776C48.0585 42.1965 48.1032 42.3097 48.1724 42.4077C48.2416 42.5057 48.3333 42.5857 48.4399 42.6409C48.5464 42.6962 48.6646 42.725 48.7846 42.7251H52.6479C52.5117 44.8345 51.7816 46.8624 50.5417 48.5744C49.3019 50.2864 47.603 51.6127 45.6414 52.4001Z" fill="black"/>
<path d="M47.4226 23.2251C47.2237 23.2251 47.0329 23.3041 46.8923 23.4448C46.7516 23.5854 46.6726 23.7762 46.6726 23.9751V27.7251C45.877 27.7251 45.1139 28.0412 44.5513 28.6038C43.9887 29.1664 43.6726 29.9294 43.6726 30.7251C43.6726 31.5207 43.9887 32.2838 44.5513 32.8464C45.1139 33.409 45.877 33.7251 46.6726 33.7251V35.9751C46.6726 36.174 46.7516 36.3648 46.8923 36.5054C47.0329 36.6461 47.2237 36.7251 47.4226 36.7251H50.5606C50.6806 36.725 50.7988 36.6962 50.9054 36.6409C51.0119 36.5857 51.1036 36.5057 51.1728 36.4077C51.242 36.3097 51.2867 36.1965 51.3031 36.0776C51.3195 35.9588 51.3072 35.8377 51.2671 35.7246C51.1825 35.4977 51.1541 35.2537 51.1843 35.0135C51.2145 34.7733 51.3024 34.5439 51.4405 34.345C51.5786 34.1462 51.7628 33.9837 51.9774 33.8714C52.1919 33.7592 52.4305 33.7006 52.6726 33.7006C52.9147 33.7006 53.1533 33.7592 53.3678 33.8714C53.5824 33.9837 53.7666 34.1462 53.9047 34.345C54.0428 34.5439 54.1307 34.7733 54.1609 35.0135C54.1911 35.2537 54.1627 35.4977 54.0781 35.7246C54.038 35.8377 54.0257 35.9588 54.0421 36.0776C54.0585 36.1965 54.1032 36.3097 54.1724 36.4077C54.2416 36.5057 54.3333 36.5857 54.4399 36.6409C54.5464 36.6962 54.6646 36.725 54.7846 36.7251H59.4226C59.6215 36.7251 59.8123 36.6461 59.9529 36.5054C60.0936 36.3648 60.1726 36.174 60.1726 35.9751C60.1688 32.5947 58.8243 29.3539 56.4341 26.9637C54.0438 24.5734 50.803 23.2289 47.4226 23.2251ZM55.6726 35.2251C55.6726 34.4294 55.3565 33.6664 54.7939 33.1038C54.2313 32.5412 53.4683 32.2251 52.6726 32.2251C51.877 32.2251 51.1139 32.5412 50.5513 33.1038C49.9887 33.6664 49.6726 34.4294 49.6726 35.2251H48.1726V32.8371C48.1725 32.7172 48.1436 32.5991 48.0885 32.4926C48.0333 32.3862 47.9534 32.2945 47.8554 32.2253C47.7575 32.1561 47.6444 32.1114 47.5257 32.0949C47.4069 32.0784 47.2859 32.0907 47.1729 32.1306C46.946 32.2152 46.702 32.2436 46.4618 32.2134C46.2215 32.1832 45.9922 32.0953 45.7933 31.9572C45.5944 31.8191 45.4319 31.6349 45.3197 31.4203C45.2075 31.2058 45.1489 30.9672 45.1489 30.7251C45.1489 30.483 45.2075 30.2444 45.3197 30.0299C45.4319 29.8153 45.5944 29.6311 45.7933 29.493C45.9922 29.3549 46.2215 29.267 46.4618 29.2368C46.702 29.2066 46.946 29.235 47.1729 29.3196C47.2859 29.3595 47.4069 29.3718 47.5257 29.3553C47.6444 29.3388 47.7575 29.2941 47.8554 29.2249C47.9534 29.1557 48.0333 29.064 48.0885 28.9576C48.1436 28.8511 48.1725 28.733 48.1726 28.6131V24.7498C50.8898 24.935 53.448 26.0981 55.3738 28.0239C57.2996 29.9497 58.4627 32.5079 58.6479 35.2251H55.6726Z" fill="black"/>
</svg>
