<svg width="84" height="90" viewBox="0 0 84 90" fill="none" xmlns="http://www.w3.org/2000/svg">
<path d="M26.9945 6.80165C34.5487 -2.26722 48.4761 -2.26722 56.0304 6.80165C58.9034 10.2508 62.9106 12.5643 67.3342 13.3279C78.9652 15.3357 85.9289 27.3971 81.8521 38.4737C80.3017 42.6864 80.3017 47.3136 81.8521 51.5263C85.9289 62.6029 78.9652 74.6643 67.3342 76.6721C62.9106 77.4357 58.9034 79.7492 56.0304 83.1983C48.4761 92.2672 34.5487 92.2672 26.9945 83.1983C24.1214 79.7492 20.1142 77.4357 15.6907 76.6721C4.05967 74.6643 -2.90402 62.6029 1.17273 51.5263C2.72322 47.3136 2.72322 42.6864 1.17273 38.4737C-2.90402 27.3971 4.05967 15.3357 15.6907 13.3279C20.1142 12.5643 24.1214 10.2508 26.9945 6.80165Z" fill="#FFD38A"/>
<path d="M58.8061 44.2501C58.4066 44.3092 58.1255 44.6939 58.1996 45.0933C58.3623 46.0253 58.4362 46.987 58.4362 47.9339C58.4362 53.1415 56.0839 57.8166 52.3706 60.953C51.7048 56.7218 48.6867 53.3338 44.707 52.1206C46.3048 51.0555 47.3404 49.2506 47.3404 47.1941C47.3404 43.9245 44.6922 41.2764 41.4226 41.2764C38.153 41.2764 35.5048 43.9245 35.5048 47.1941C35.5048 49.2506 36.5405 51.0555 38.1383 52.1206C34.1586 53.3338 31.1405 56.7218 30.4747 60.953C26.7614 57.8166 24.409 53.1415 24.409 47.9339C24.409 46.987 24.483 46.0253 24.6457 45.0933C24.7197 44.6939 24.4386 44.3092 24.0391 44.2501C23.6249 44.176 23.255 44.4424 23.181 44.8566C23.0183 45.8626 22.9296 46.8982 22.9296 47.9339C22.9296 58.1273 31.2292 66.4269 41.4226 66.4269C51.616 66.4269 59.9157 58.1273 59.9157 47.9339C59.9157 46.8982 59.8269 45.8626 59.6642 44.8566C59.5903 44.4424 59.2204 44.176 58.8061 44.2501ZM36.9843 47.1941C36.9843 44.753 38.9815 42.7558 41.4226 42.7558C43.8637 42.7558 45.861 44.753 45.861 47.1941C45.861 49.6352 43.8637 51.6325 41.4226 51.6325C38.9815 51.6325 36.9843 49.6352 36.9843 47.1941Z" fill="black"/>
<path d="M45.9201 33.4945L46.7191 38.214C46.7782 38.4802 46.6599 38.7613 46.4232 38.9389C46.3048 39.0276 46.1421 39.0721 45.9942 39.0721C45.8758 39.0721 45.7574 39.0424 45.6539 38.9833L41.4227 36.7641L37.1915 38.9833C36.9399 39.1164 36.6441 39.1016 36.4221 38.9389C36.1855 38.7613 36.0671 38.4802 36.1262 38.214L36.9252 33.4945L33.5077 30.1658C33.3005 29.9734 33.2413 29.6775 33.3153 29.4112C33.4041 29.145 33.6408 28.9526 33.9219 28.9083L38.6413 28.2129L40.7569 23.9373C41.0084 23.4343 41.837 23.4343 42.0884 23.9373L44.204 28.2129L48.9235 28.9083C49.2046 28.9526 49.4412 29.145 49.53 29.4112C49.604 29.6775 49.5448 29.9734 49.3377 30.1658L45.9201 33.4945Z" fill="#029348"/>
<path d="M34.7353 34.2492C34.8093 34.5155 34.7501 34.8114 34.543 35.0038L31.8652 37.6223L32.4866 41.3061C32.5457 41.5872 32.4274 41.8683 32.2055 42.0311C32.0723 42.1346 31.9244 42.1791 31.7616 42.1791C31.6433 42.1791 31.5249 42.1494 31.4213 42.0903L28.1074 40.3446L24.7935 42.0903C24.542 42.2235 24.2461 42.1939 24.0093 42.0311C23.7875 41.8683 23.6691 41.5872 23.7282 41.3061L24.3496 37.6223L21.6719 35.0038C21.4647 34.8114 21.4055 34.5155 21.4795 34.2492C21.5683 33.983 21.805 33.7906 22.0861 33.7462L25.7847 33.2136L27.4416 29.8552C27.6931 29.3523 28.5217 29.3523 28.7732 29.8552L30.4301 33.2136L34.1288 33.7462C34.4099 33.7906 34.6465 33.983 34.7353 34.2492Z" fill="#D12B38"/>
<path d="M61.173 35.0038L58.4952 37.6223L59.1166 41.3061C59.1757 41.5872 59.0574 41.8683 58.8355 42.0311C58.7023 42.1346 58.5544 42.1791 58.3916 42.1791C58.2733 42.1791 58.1549 42.1494 58.0514 42.0903L54.7374 40.3446L51.4235 42.0903C51.172 42.2235 50.8761 42.1939 50.6393 42.0311C50.4175 41.8683 50.2991 41.5872 50.3582 41.3061L50.9797 37.6223L48.3019 35.0038C48.0947 34.8114 48.0355 34.5155 48.1095 34.2492C48.1983 33.983 48.435 33.7906 48.7161 33.7462L52.4147 33.2136L54.0716 29.8552C54.3231 29.3523 55.1517 29.3523 55.4032 29.8552L57.0601 33.2136L60.7588 33.7462C61.0399 33.7906 61.2765 33.983 61.3653 34.2492C61.4393 34.5155 61.3801 34.8114 61.173 35.0038Z" fill="#D12B38"/>
</svg>
