<svg width="8" height="5" viewBox="0 0 8 5" fill="none" xmlns="http://www.w3.org/2000/svg">
<path d="M6.64062 0.15625L3.75 3.04688L0.859375 0.15625C0.765625 0.0520835 0.648438 0 0.507812 0C0.367188 0 0.25 0.0520835 0.15625 0.15625C0.0520833 0.25 0 0.364583 0 0.5C0 0.635417 0.0520833 0.755208 0.15625 0.859375L3.39062 4.09375C3.44271 4.14583 3.5 4.1849 3.5625 4.21094C3.625 4.23698 3.6875 4.25 3.75 4.25C3.8125 4.25 3.875 4.23698 3.9375 4.21094C4 4.1849 4.05729 4.14583 4.10938 4.09375L7.34375 0.859375C7.44792 0.755208 7.5 0.635417 7.5 0.5C7.5 0.364583 7.44792 0.25 7.34375 0.15625C7.25 0.0520835 7.13281 0 6.99219 0C6.85156 0 6.73438 0.0520835 6.64062 0.15625Z" fill="black" fill-opacity="0.6"/>
</svg>
